HIERARCHY
ROOT ui
{
	 OFFSET 0 0 0
	 CHANNELS 3 XPosition YPosition Z Position
	 EndSite
	 {
	 OFFSET 0 -1 0
	 }
}
ROOT li
{
	 OFFSET 0 0 0
	 CHANNELS 3 XPosition YPosition Z Position
	 EndSite
	 {
	 OFFSET 0 -1 0
	 }
}
ROOT ul
{
	 OFFSET 0 0 0
	 CHANNELS 3 XPosition YPosition Z Position
	 EndSite
	 {
	 OFFSET 0 -1 0
	 }
}
ROOT ll
{
	 OFFSET 0 0 0
	 CHANNELS 3 XPosition YPosition Z Position
	 EndSite
	 {
	 OFFSET 0 -1 0
	 }
}
ROOT tt
{
	 OFFSET 0 0 0
	 CHANNELS 3 XPosition YPosition Z Position
	 EndSite
	 {
	 OFFSET 0 -1 0
	 }
}
ROOT tb
{
	 OFFSET 0 0 0
	 CHANNELS 3 XPosition YPosition Z Position
	 EndSite
	 {
	 OFFSET 0 -1 0
	 }
}
ROOT td
{
	 OFFSET 0 0 0
	 CHANNELS 3 XPosition YPosition Z Position
	 EndSite
	 {
	 OFFSET 0 -1 0
	 }
}
ROOT v
{
	 OFFSET 0 0 0
	 CHANNELS 3 XPosition YPosition Z Position
	 EndSite
	 {
	 OFFSET 0 -1 0
	 }
}
ROOT bn
{
	 OFFSET 0 0 0
	 CHANNELS 3 XPosition YPosition Z Position
	 EndSite
	 {
	 OFFSET 0 -1 0
	 }
}
MOTION
Frames: 21
Frame Time: 0.002
-0.02856285858154297	-0.004104980945587158	0		0.5791838989257813	-2.581990966796875	0		-1.0724442138671875	0.1764850616455078	0		-0.4248592224121094	-2.585656005859375	0		2.595258056640625	-1.3086861572265625	0		3.890497802734375	-0.32383892822265625	0		5.13644189453125	0.2973120422363281	0		6.0198466796875	0.6110263671875	0		-0.4758251953125	5.8198330078125	0		
0.05542568969726563	0.001571753978729248	0		0.6020460815429688	-2.594930419921875	0		-1.0234985961914063	0.17538597106933593	0		-0.4417753295898437	-2.5633408203125	0		2.596162353515625	-1.315492919921875	0		3.89540478515625	-0.33067486572265625	0		5.15043896484375	0.30441534423828126	0		6.03055224609375	0.62675927734375	0		-0.4758555908203125	5.82004150390625	0		
-0.021610252380371092	0.003277367115020752	0		0.5960667724609375	-2.58067919921875	0		-1.029509033203125	0.18065266418457032	0		-0.38873651123046876	-2.54645263671875	0		2.606150390625	-1.308361083984375	0		3.89535791015625	-0.33049163818359373	0		5.14635986328125	0.2986123352050781	0		6.02487841796875	0.6513482055664063	0		-0.44180816650390625	5.82605029296875	0		
0.0503692512512207	0.006050539970397949	0		0.6030787353515625	-2.56650341796875	0		-0.9955704956054687	0.17668182373046876	0		-0.428577392578125	-2.508965087890625	0		2.580124755859375	-1.3030062255859376	0		3.908308349609375	-0.3314030456542969	0		5.14632666015625	0.29876458740234374	0		6.024853515625	0.6515877685546875	0		-0.45682229614257813	5.81638134765625	0		
-0.02570785903930664	-2.3154400289058686E-4	0		0.576012939453125	-2.563108154296875	0		-1.0006265869140625	0.17296919250488282	0		-0.37756732177734376	-2.494045166015625	0		2.595032470703125	-1.3079171142578125	0		3.892236083984375	-0.33614340209960936	0		5.1602470703125	0.2908089294433594	0		6.0212197265625	0.6345416259765625	0		-0.47670855712890625	5.8217529296875	0		
0.044204036712646486	-0.00843916130065918	0		0.575915283203125	-2.562884033203125	0		-1.0006580200195312	0.17323165893554687	0		-0.428496337890625	-2.467472900390625	0		2.577971923828125	-1.3066331787109375	0		3.884147705078125	-0.3429481201171875	0		5.14221875	0.2910372314453125	0		6.02683837890625	0.61039208984375	0		-0.44058493041992186	5.82477294921875	0		
-0.03283304214477539	-0.006709799766540527	0		0.5798313598632813	-2.5576884765625	0		-0.9897047119140625	0.17242607116699218	0		-0.3425280456542969	-2.454775390625	0		2.590794677734375	-1.321550537109375	0		3.919067138671875	-0.3470428771972656	0		5.1552265625	0.2980483093261719	0		6.03755322265625	0.627644287109375	0		-0.43947467041015625	5.82401611328125	0		
0.05516527938842773	0.0029577720165252686	0		0.5857340698242187	-2.550511474609375	0		-0.98573779296875	0.17666392517089843	0		-0.39249868774414065	-2.4282099609375	0		2.595735107421875	-1.3144287109375	0		3.884018798828125	-0.34270401000976564	0		5.16012646484375	0.291092041015625	0		6.03900146484375	0.6519232177734375	0		-0.44134771728515626	5.826275390625	0		
-0.021922170639038088	0.004682271957397461	0		0.6005737915039062	-2.54739990234375	0		-0.9208289794921874	0.17650360107421875	0		-0.3276107177734375	-2.41839013671875	0		2.590551025390625	-1.32125341796875	0		3.898821044921875	-0.35670037841796876	0		5.15600146484375	0.2851765747070312	0		6.024583984375	0.619326171875	0		-0.46121920776367187	5.8316474609375	0		
-0.03313489532470703	-0.00602423620223999	0		0.5733641967773437	-2.544024169921875	0		-0.995014892578125	0.169238037109375	0		-0.3867240600585938	-2.400774169921875	0		2.59036376953125	-1.3211220703125	0		3.88758935546875	-0.36854248046875	0		5.1468701171875	0.2852777099609375	0		6.0258994140625	0.6141326904296875	0		-0.4742303466796875	5.82096923828125	0		
-0.03333517074584961	-0.005810865879058838	0		0.58301416015625	-2.552897705078125	0		-0.9192105102539062	0.16898855590820314	0		-0.3799642333984375	-2.39359423828125	0		2.5940380859375	-1.3330284423828125	0		3.89138916015625	-0.3664953918457031	0		5.15658203125	0.27024093627929685	0		6.0264638671875	0.6106531982421874	0		-0.4742224426269531	5.8211982421875	0		
-0.03360031127929688	-0.005607219219207764	0		0.5507631225585937	-2.536506103515625	0		-1.028440673828125	0.17394110107421876	0		-0.4042228698730469	-2.379220458984375	0		2.600672119140625	-1.34096533203125	0		3.887097900390625	-0.36840692138671877	0		5.16037255859375	0.27723095703125	0		6.0313828125	0.65206396484375	0		-0.46021197509765627	5.83132568359375	0		
-0.022856151580810547	0.0055137982368469235	0		0.580357666015625	-2.53453125	0		-0.9867371826171875	0.17789250183105468	0		-0.3715368347167969	-2.36423193359375	0		2.566317138671875	-1.337639892578125	0		3.901663818359375	-0.38245074462890627	0		5.15600830078125	0.2702675476074219	0		6.04893603515625	0.6344391479492187	0		-0.411228759765625	5.8472099609375	0		
-0.027264556884765624	0.0017251689434051513	0		0.5518905029296876	-2.534180908203125	0		-0.9911397094726563	0.17413644409179688	0		-0.3580257263183594	-2.36812841796875	0		2.591796142578125	-1.3517152099609375	0		3.88826904296875	-0.382312255859375	0		5.15563525390625	0.2702772216796875	0		6.0307890625	0.6173882446289063	0		-0.4464390563964844	5.843640625	0		
0.046286148071289064	-0.00259252405166626	0		0.6273218383789062	-2.54452978515625	0		-0.9225300903320313	0.17788209533691407	0		-0.36644708251953123	-2.356888427734375	0		2.586286376953125	-1.3585870361328125	0		3.88881591796875	-0.3852648010253906	0		5.1561357421875	0.2572852783203125	0		6.02477587890625	0.613995849609375	0		-0.43061764526367186	5.85272314453125	0		
-0.035174888610839845	-0.004882815837860107	0		0.5389240112304687	-2.5267900390625	0		-0.9979594116210937	0.17957856750488282	0		-0.36493557739257815	-2.353723876953125	0		2.57873193359375	-1.369444580078125	0		3.883228515625	-0.405171875	0		5.15164697265625	0.2493357696533203	0		6.03229931640625	0.6104046020507813	0		-0.39586386108398436	5.85766796875	0		
0.045395431518554685	-0.002266695022583008	0		0.5783670043945313	-2.533911376953125	0		-0.988409912109375	0.17869593811035156	0		-0.3814198303222656	-2.350447021484375	0		2.564103271484375	-1.3912515869140625	0		3.903743408203125	-0.40924642944335937	0		5.15515087890625	0.2413450927734375	0		6.03708935546875	0.6518656616210937	0		-0.41613613891601564	5.86297265625	0		
-0.021967241287231445	0.00933926010131836	0		0.558958984375	-2.521640380859375	0		-0.9797909545898438	0.18680972290039063	0		-0.337859375	-2.343581787109375	0		2.594595458984375	-1.397357666015625	0		3.878283935546875	-0.41100152587890626	0		5.15471728515625	0.24139593505859375	0		6.03959326171875	0.63803466796875	0		-0.41255767822265627	5.848109375	0		
0.04756084823608398	0.001016450047492981	0		0.597493896484375	-2.522762939453125	0		-0.9132666625976562	0.17752284240722657	0		-0.3732927856445313	-2.34018896484375	0		2.58406201171875	-1.4111815185546874	0		3.876739013671875	-0.4289071960449219	0		5.14721728515625	0.22850996398925782	0		6.02203076171875	0.5847752685546875	0		-0.4619858703613281	5.83259814453125	0		
-0.025787986755371094	0.00665713882446289	0		0.543098876953125	-2.519258056640625	0		-0.9136488037109375	0.17768095397949218	0		-0.33872821044921875	-2.343275146484375	0		2.57355810546875	-1.4259998779296874	0		3.878260986328125	-0.4418234558105469	0		5.1427880859375	0.2216180419921875	0		6.0217578125	0.5848947143554688	0		-0.4423302307128906	5.827615234375	0		
0.03978352737426758	-0.005648393154144287	0		0.5597694702148438	-2.51323681640625	0		-0.9940111694335938	0.1753750457763672	0		-0.40402685546875	-2.332688720703125	0		2.57307666015625	-1.443882080078125	0		3.87487060546875	-0.44769805908203125	0		5.14143798828125	0.22071760559082032	0		6.0180859375	0.6352673950195312	0		-0.46258547973632813	5.83289697265625	0		
